<svg width="250" height="250" viewBox="0 0 250 250" fill="none" xmlns="http://www.w3.org/2000/svg">
<g clip-path="url(#clip0_34_22)">
<g clip-path="url(#clip1_34_22)">
<path d="M75 250C33.5775 250 0 216.422 0 175V75C0 33.5775 33.5775 0 75 0H175C216.422 0 250 33.5775 250 75V175C250 216.422 216.422 250 175 250H75Z" fill="black" fill-opacity="0.05"/>
<g clip-path="url(#clip2_34_22)">
<g clip-path="url(#clip3_34_22)">
<path d="M125 50C83.5769 50 50 83.5769 50 125C50 166.423 83.5769 200 125 200C166.423 200 200 166.423 200 125C200 83.5769 166.423 50 125 50ZM114.892 165.788C108.137 172.55 96.6904 172.06 84.2981 159.673C71.9115 147.281 74.1038 125 74.1038 125C74.1038 125 96.3846 122.808 108.777 135.2C121.163 147.587 121.654 159.033 114.892 165.788ZM107.692 104.808C107.692 87.2865 125 73.0769 125 73.0769C125 73.0769 142.308 87.2865 142.308 104.808C142.308 122.329 134.554 130.769 125 130.769C115.446 130.769 107.692 122.329 107.692 104.808ZM165.702 159.673C153.31 172.06 141.863 172.55 135.108 165.788C128.346 159.033 128.837 147.587 141.223 135.194C153.615 122.808 175.896 125 175.896 125C175.896 125 178.088 147.281 165.702 159.673Z" fill="white" fill-opacity="0.7"/>
</g>
</g>
</g>
</g>
<defs>
<clipPath id="clip0_34_22">
<rect width="250" height="250" fill="white"/>
</clipPath>
<clipPath id="clip1_34_22">
<rect width="250" height="250" fill="white"/>
</clipPath>
<clipPath id="clip2_34_22">
<rect width="150" height="150" fill="white" transform="translate(50 50)"/>
</clipPath>
<clipPath id="clip3_34_22">
<rect width="150" height="150" fill="white" transform="translate(50 50)"/>
</clipPath>
</defs>
</svg>
