<svg xmlns="http://www.w3.org/2000/svg" width="15.557" height="10" viewBox="0 0 15.557 10">
  <g id="Icon_ionic-ios-eye" data-name="Icon ionic-ios-eye" transform="translate(-2.252 -7.875)">
    <path id="Path_221" data-name="Path 221" d="M10.022,7.875C7.23,7.875,5.029,9.632,2.4,12.5a.549.549,0,0,0,0,.74c2.253,2.49,4.24,4.632,7.628,4.632,3.347,0,5.858-2.7,7.642-4.653a.545.545,0,0,0,.017-.719C15.862,10.3,13.345,7.875,10.022,7.875ZM10.174,16a3.125,3.125,0,1,1,2.976-2.976A3.126,3.126,0,0,1,10.174,16Z"/>
    <path id="Path_222" data-name="Path 222" d="M16,14.164a1.835,1.835,0,0,1,.121-.66c-.039,0-.078,0-.121,0A2.5,2.5,0,1,0,18.5,16c0-.051,0-.1,0-.152a1.732,1.732,0,0,1-.711.152A1.814,1.814,0,0,1,16,14.164Z" transform="translate(-5.972 -3.125)"/>
  </g>
</svg>
